<svg width="174" height="47" viewBox="0 0 174 47" fill="none" xmlns="http://www.w3.org/2000/svg">
<path d="M1.12158 30.3095L1.89054 31.8475C2.0187 32.0717 2.30706 32.1679 2.53134 32.0397C4.32558 30.9503 11.2462 26.8172 12.1433 26.8492C16.2444 27.0735 6.24798 23.9336 6.24798 23.9336L1.12158 30.3095Z" fill="url(#paint0_linear_222_2864)"/>
<path d="M22.2681 26.0161L22.6525 29.3803C22.6525 29.3803 22.9089 30.694 23.3574 30.5658C23.806 30.4376 24.9915 30.4697 25.2798 29.7648C25.5682 29.0599 25.6002 26.0161 25.6002 26.0161H22.2681Z" fill="url(#paint1_linear_222_2864)"/>
<path d="M40.8511 28.868C40.8511 28.868 44.9202 31.0467 45.6891 32.1681C45.7852 32.3283 45.9775 32.3923 46.1697 32.3283C47.227 31.8797 47.6115 27.4902 47.6115 27.4902L40.8511 28.868Z" fill="url(#paint2_linear_222_2864)"/>
<path d="M3.26823 34.3467C7.27323 29.8932 12.0472 28.2271 17.3017 28.0669C17.6221 28.0669 17.9105 28.2271 18.0707 28.5155C18.3911 29.0922 20.5698 32.4243 20.73 33.1613C21.4349 39.6013 19.9611 43.9267 15.5395 45.4326C15.123 45.5928 14.6424 45.5928 14.1939 45.4646C12.1113 44.8238 8.84319 42.8053 6.31203 40.0178C4.96635 38.544 4.06923 36.8138 3.17211 35.1157C3.04395 34.8594 3.07599 34.571 3.26823 34.3467Z" fill="url(#paint3_linear_222_2864)"/>
<path d="M45.1446 34.3467C41.1396 29.8932 36.3657 28.2271 31.1111 28.0669C30.7907 28.0669 30.1499 28.0669 29.9897 28.3232C29.6693 28.8999 29.381 29.3485 29.2208 29.8291C29.0606 30.2777 28.4518 32.4243 28.2916 33.1292C27.5867 39.5692 27.5867 44.151 32.8413 45.4005C33.2899 45.4966 33.7384 45.5607 34.187 45.4326C36.2696 44.7918 39.5377 42.7732 42.0688 39.9858C43.4145 38.5119 44.3116 36.7818 45.2087 35.0836C45.3689 34.8594 45.3369 34.571 45.1446 34.3467Z" fill="url(#paint4_linear_222_2864)"/>
<path d="M47.0347 30.6301C46.9066 31.0466 45.5929 30.7903 45.2405 30.6621C41.9724 29.3485 38.7364 28.0348 35.4683 26.7212C34.9877 26.529 34.4751 26.4649 33.9945 26.2726C33.8343 26.2086 33.7061 26.0163 33.61 25.8561C33.578 25.8241 33.7702 25.5998 33.8984 25.5357C36.4936 24.3182 39.1849 23.2929 42.1006 23.1968C43.7026 23.1648 45.3366 23.4531 46.9386 23.6454C47.6115 23.7415 47.8998 24.2541 47.9319 24.8949C47.9319 25.2794 47.9319 25.6318 47.9319 26.0163C47.9959 26.0484 47.5153 29.1242 47.0347 30.6301Z" fill="#303030"/>
<path d="M4.61375 23.0688C7.94591 23.165 11.0538 23.966 13.9374 25.568C14.0335 25.632 14.1296 25.7282 14.1937 25.8563C14.2898 25.9845 14.2578 26.1447 14.1296 26.2408C14.0015 26.3369 13.9053 26.433 13.7772 26.4651C11.9509 27.1059 10.1246 27.7146 8.33039 28.3875C6.69635 28.9642 5.09435 29.605 3.46032 30.2138C2.97972 30.406 2.53116 30.6303 2.05056 30.7584C1.63404 30.8866 1.34568 30.6944 1.15344 30.3099C0.0961189 28.3554 -9.98378e-07 26.3049 0.448559 24.1902C0.480599 23.966 0.800998 23.6776 1.05732 23.6456C2.21076 23.4213 3.42828 23.2611 4.61375 23.0688Z" fill="#303030"/>
<path d="M14.3858 19.1598C14.4178 19.3841 14.3538 19.7365 14.1936 19.8326C14.0334 19.9288 13.6809 19.8647 13.4887 19.7365C12.3352 18.9676 11.1498 18.1986 10.0604 17.3335C9.70796 17.0452 9.45164 16.5325 9.35552 16.116C8.939 13.5848 8.42636 11.0537 7.08068 8.87496C6.02336 7.1448 7.62536 6.37584 8.7788 5.67096C9.00308 5.5428 9.4196 5.67096 9.64388 5.83116C10.9896 6.85644 12.3352 7.91376 13.6168 9.00312C13.8411 9.19536 13.9693 9.5478 13.9693 9.8682C14.0334 10.8294 14.2256 17.0452 14.3858 19.1598Z" fill="#303030"/>
<path d="M38.9606 5.51074C39.1208 5.57482 39.3451 5.60686 39.5053 5.73502C39.9218 6.05542 40.3383 6.34378 40.6587 6.72826C41.4597 7.59334 41.3956 7.7215 40.9791 8.77882C40.2422 10.5731 39.5694 12.3673 38.9286 14.1936C38.7684 14.6742 38.7684 15.2509 38.7363 15.7956C38.7043 16.4043 38.48 16.917 37.9674 17.3015C36.8139 18.1025 35.6605 18.9355 34.475 19.7044C34.2828 19.8326 33.9624 19.7685 33.706 19.8006C33.706 19.5442 33.642 19.2879 33.674 19.0316C33.8022 17.6859 34.0585 16.3723 34.0905 15.0266C34.1546 13.2965 34.0905 11.5983 34.1546 9.86818C34.1546 9.51574 34.3148 9.06718 34.5391 8.87494C35.8527 7.78558 37.1984 6.7603 38.512 5.70298C38.6402 5.60686 38.8004 5.57482 38.9606 5.51074Z" fill="#303030"/>
<path d="M22.0117 13.7449C22.204 13.2323 22.4923 12.3031 22.8448 11.406C23.069 10.7972 23.3894 10.2205 23.7098 9.67583C25.2478 7.04855 25.6002 4.0368 26.1769 1.12116C26.241 0.832798 26.5614 0.352199 26.7857 0.352199C27.3304 0.320159 27.9391 0.416279 28.4518 0.640559C28.5799 0.672599 28.5479 1.37748 28.4197 1.69788C27.7148 3.74844 26.9138 5.76695 26.3051 7.81751C26.0167 8.74667 26.0808 9.80399 26.0167 10.7972C25.8245 13.3925 25.8886 16.0197 26.3371 18.5829C26.3371 18.615 26.3692 18.6791 26.3692 18.7111C26.241 19.1917 26.1128 19.6723 25.9847 20.1209C25.6002 19.8966 25.1837 19.7364 24.8633 19.448C24.2866 18.9033 23.806 18.2625 23.2933 17.6538C22.4923 16.6926 22.0758 15.5071 22.0117 13.7449Z" fill="#303030"/>
<path d="M46.6824 21.3705C44.5998 21.4346 42.4852 21.3705 40.4026 21.6269C38.6725 21.8191 37.0064 22.3958 35.3083 22.8123C35.1481 22.8444 34.9879 22.9405 34.8277 22.9405C34.6675 22.9405 34.4111 22.8764 34.3471 22.7483C34.283 22.6521 34.3791 22.3638 34.5073 22.2997C35.8529 21.2424 37.1345 20.153 38.5763 19.2239C40.723 17.8461 43.1581 17.0131 45.6572 16.5005C46.33 16.3403 46.6504 16.5325 46.8747 17.2053C47.163 18.2306 47.4514 19.2559 47.7077 20.3132C47.932 21.2103 47.6116 21.5948 46.6824 21.3705Z" fill="#303030"/>
<path d="M2.27477 16.4043C2.69129 16.5004 3.17189 16.6286 3.65249 16.7567C6.11956 17.4616 8.52256 18.3587 10.5731 19.9928C11.3741 20.6336 12.1431 21.3064 12.88 22.0113C13.0082 22.1395 13.0082 22.4278 13.0402 22.6201C12.8159 22.6201 12.6237 22.6201 12.3994 22.556C10.9896 22.2676 9.57988 21.8511 8.17012 21.6589C5.671 21.3064 3.13985 21.2103 0.640728 21.4987C0.224209 21.5307 -0.096191 21.4987 0.0640088 20.954C0.448489 19.7044 0.832968 18.4549 1.21745 17.2053C1.34561 16.7247 1.63397 16.4043 2.27477 16.4043Z" fill="#303030"/>
<path d="M32.2644 14.8667C32.0401 18.1027 31.4634 21.1145 29.9255 23.9019C29.509 24.6389 29.2206 25.4399 28.8361 26.1447C28.708 26.4011 28.4196 26.5613 28.1953 26.7855C28.0672 26.5292 27.8749 26.2729 27.8749 26.0166C27.6506 23.133 28.1312 20.3455 29.0604 17.5901C29.573 16.0521 30.342 14.6424 31.2391 13.3287C31.3993 13.1045 31.7518 13.0083 32.0081 12.8481C32.1042 13.1045 32.2644 13.3608 32.2964 13.6171C32.2964 14.0336 32.2644 14.5142 32.2644 14.8667Z" fill="#303030"/>
<path d="M20.1212 23.9656C20.1212 24.5423 20.1533 25.1191 20.1212 25.7278C20.1212 25.8239 20.0892 25.888 20.0571 25.9521C19.961 26.1123 19.7688 26.1764 19.6086 26.1123C19.5125 26.0482 19.4163 26.0162 19.3523 25.9201C19.1921 25.6958 19.0959 25.3754 18.9678 25.087C18.2629 23.5171 17.5901 21.9471 16.8211 20.4092C16.1162 18.9354 16.1162 17.3334 15.9881 15.7634C15.924 14.9624 15.956 14.1934 16.0201 13.3924C16.0201 13.2002 16.2444 12.9759 16.4046 12.9118C16.5327 12.8798 16.8211 13.04 16.8852 13.2002C17.558 14.4818 18.2949 15.7314 18.8076 17.077C19.6406 19.2878 20.2173 21.5626 20.1212 23.9656Z" fill="#303030"/>
<path d="M31.7839 8.00967C31.6557 8.49026 31.6237 9.0029 31.3674 9.35534C30.4062 10.8612 29.4129 12.3671 28.3877 13.8409C28.2915 14.0011 27.875 14.1293 27.7469 14.0332C27.5546 13.905 27.3944 13.5846 27.4265 13.3603C27.5226 12.271 27.7148 11.1816 27.8109 10.0923C28.0032 8.10578 28.5479 6.21543 29.3168 4.38915C29.4129 4.13283 29.6693 3.94059 29.8295 3.71631C30.0217 3.94059 30.246 4.13283 30.3421 4.35711C30.6625 4.96587 30.9509 5.60667 31.2072 6.24747C31.4955 6.82419 31.6237 7.40091 31.7839 8.00967Z" fill="#303030"/>
<path d="M16.2441 7.59327C16.5966 6.82431 16.917 6.02331 17.2694 5.25435C17.4296 4.90191 17.6219 4.54947 17.8461 4.22907C18.1025 3.84459 18.551 3.87663 18.6792 4.32519C19.1598 5.99127 19.8647 7.59327 20.0249 9.35546C20.153 10.7011 20.3453 12.0468 20.4414 13.3925C20.4734 13.6168 20.3132 13.9372 20.121 14.0653C19.9928 14.1615 19.5443 14.0333 19.4802 13.9051C18.4549 12.0789 17.0772 10.4769 16.4684 8.42631C16.4043 8.16999 16.3723 7.91367 16.3082 7.65735C16.3403 7.62531 16.3082 7.62531 16.2441 7.59327Z" fill="#303030"/>
<path d="M24.1583 1.89017C23.9981 3.49216 23.4214 5.31844 22.6204 7.0486C22.5243 7.27288 22.2039 7.369 22.0117 7.5292C21.8835 7.30492 21.7233 7.11268 21.6272 6.8884C21.1786 5.767 20.7621 4.6456 20.3135 3.5242C19.9931 2.7232 19.6087 1.95425 19.3203 1.15325C19.2562 1.02509 19.4805 0.640607 19.6407 0.608567C20.6339 0.384287 21.6272 0.0638873 22.6204 0.0318473C23.902 -0.0642726 24.1904 0.320207 24.1583 1.89017Z" fill="#303030"/>
<path d="M21.7233 20.0569C21.6913 19.8326 21.8194 19.5763 21.8835 19.3521C22.0758 19.4482 22.3321 19.4802 22.4602 19.6404C23.4214 20.6336 24.3826 21.6589 25.3438 22.6842C25.7283 23.0687 25.8244 23.5172 25.6963 24.094C25.5681 24.7348 25.6002 25.3756 25.6002 26.0484C25.6002 27.1057 25.6963 26.9776 24.3506 26.9776C24.1263 26.9776 23.838 26.9776 23.6137 27.0096C22.268 27.1378 22.3962 26.9776 22.268 26.0804C22.0758 24.7027 21.7874 20.7298 21.7233 20.0569Z" fill="#303030"/>
<path d="M40.5625 14.9626C41.0431 13.6169 41.5237 12.3033 42.0043 10.9897C42.1325 10.6693 42.3247 10.3489 42.4849 10.0605C42.7412 9.54786 42.9975 9.51582 43.382 9.96438C44.4073 11.1499 45.1442 12.4635 45.6889 13.9373C45.8171 14.2898 45.6889 14.5141 45.3365 14.6102C44.0549 14.9947 42.8053 15.3791 41.5237 15.7636C40.947 15.8918 40.6586 15.6355 40.5625 14.9626Z" fill="#303030"/>
<path d="M7.30517 15.0907C7.30517 15.6674 7.08089 15.8597 6.53621 15.6995C5.35073 15.347 4.13321 14.9625 2.94773 14.5781C2.21081 14.3217 2.11469 14.1295 2.49917 13.4567C3.17201 12.2712 3.90893 11.1177 4.64585 9.9643C4.90217 9.57982 5.19053 9.4837 5.54297 9.90022C6.08765 10.6692 7.30517 14.1615 7.30517 15.0907Z" fill="#303030"/>
<path d="M16.4364 1.31348C16.5004 1.53776 16.6606 1.79408 16.6286 1.95428C16.3402 2.75528 15.9558 3.52423 15.6354 4.32523C15.4111 4.86991 15.2188 5.41459 15.0586 5.95927C14.8023 6.82435 14.3538 6.98455 13.6489 6.43987C12.8479 5.79907 12.0469 5.15827 11.2779 4.51747C10.9575 4.26115 10.7973 3.97279 11.2779 3.71647C12.8479 2.94752 14.4499 2.17856 16.0519 1.44164C16.0839 1.4096 16.148 1.37756 16.4364 1.31348Z" fill="#303030"/>
<path d="M33.6098 6.82417C33.4817 6.72805 33.2894 6.59989 33.2253 6.43969C32.5845 4.90177 31.9758 3.36385 31.3991 1.85797C31.335 1.72981 31.367 1.50553 31.4631 1.40941C31.5593 1.31329 31.7835 1.31329 31.9117 1.34533C33.4817 2.05021 35.0196 2.78713 36.5575 3.52405C36.942 3.71629 37.1342 4.10077 36.7497 4.45321C35.8526 5.22217 34.9235 5.95909 33.9943 6.69601C33.8982 6.76009 33.77 6.76009 33.6098 6.82417Z" fill="#303030"/>
<path d="M66.9633 10.1247C66.9633 15.155 63.8875 18.1667 59.3378 18.1667C54.7561 18.1667 52.0327 14.7384 52.0327 10.381C52.0327 5.79929 55.0445 2.40305 59.5942 2.40305C64.3681 2.37101 66.9633 5.89541 66.9633 10.1247ZM55.7494 10.3169C55.7494 13.3287 57.1912 15.4433 59.5301 15.4433C61.901 15.4433 63.2787 13.2326 63.2787 10.2528C63.2787 7.4974 61.9651 5.12645 59.5301 5.12645C57.1271 5.12645 55.7494 7.3372 55.7494 10.3169Z" fill="#303030"/>
<path d="M78.5299 15.2507C78.5299 16.276 78.5619 17.3013 78.7221 17.91H75.5502L75.3579 16.7886H75.2939C74.5569 17.6857 73.4035 18.1343 72.0578 18.1343C69.783 18.1343 68.4053 16.5003 68.4053 14.7381C68.4053 11.8545 71.0326 10.5088 75.0375 10.5088V10.3806C75.0375 9.77187 74.7171 8.93883 72.987 8.93883C71.8336 8.93883 70.616 9.32331 69.8791 9.77187L69.2383 7.56111C70.0073 7.14459 71.5772 6.56787 73.6278 6.56787C77.3765 6.56787 78.5619 8.74659 78.5619 11.3739V15.2507H78.5299ZM75.1657 12.6875C73.3074 12.6875 71.8976 13.104 71.8976 14.4177C71.8976 15.3148 72.5064 15.7313 73.2753 15.7313C74.1404 15.7313 74.8773 15.1546 75.1016 14.4497C75.1337 14.2575 75.1657 14.0652 75.1657 13.873V12.6875Z" fill="#303030"/>
<path d="M84.8418 11.5022H84.8738C85.1301 11.0216 85.4185 10.5731 85.6748 10.1566L87.9497 6.82441H92.1789L88.1419 11.31L92.7557 17.9102H88.4303L85.6748 13.3606L84.8097 14.4499V17.9102H81.3174V1.82617H84.8097V11.5022H84.8418Z" fill="#303030"/>
<path d="M93.8132 14.9303C94.454 15.3148 95.7996 15.7313 96.8249 15.7313C97.8822 15.7313 98.3308 15.3789 98.3308 14.8342C98.3308 14.2575 97.9784 13.9691 96.6968 13.5526C94.3578 12.7836 93.4287 11.5341 93.4607 10.2204C93.4607 8.13783 95.255 6.56787 98.0424 6.56787C99.3561 6.56787 100.51 6.88827 101.214 7.20867L100.606 9.61167C100.093 9.35535 99.0998 8.97087 98.1706 8.97087C97.3055 8.97087 96.8249 9.32331 96.8249 9.86799C96.8249 10.4127 97.2735 10.669 98.6512 11.1496C100.798 11.8865 101.663 12.9759 101.695 14.5779C101.695 16.6605 100.061 18.1663 96.8249 18.1663C95.3511 18.1663 94.0374 17.8139 93.1724 17.3653L93.8132 14.9303Z" fill="#303030"/>
<path d="M56.2624 26.4009V41.6519H52.77V26.4009H56.2624Z" fill="#303030"/>
<path d="M59.2739 34.1225C59.2739 32.7448 59.2418 31.5914 59.1777 30.5981H62.2215L62.3817 32.136H62.4458C62.8944 31.3991 64.0478 30.3418 65.9382 30.3418C68.245 30.3418 69.9752 31.8477 69.9752 35.1158V41.6519H66.4828V35.5323C66.4828 34.1225 65.9702 33.1293 64.7207 33.1293C63.7595 33.1293 63.1827 33.7701 62.9264 34.4109C62.8303 34.6352 62.7983 34.9556 62.7983 35.276V41.6519H59.2739V34.1225Z" fill="#303030"/>
<path d="M76.5756 27.5864V30.5661H79.0747V33.0973H76.5756V37.1023C76.5756 38.448 76.928 39.0567 77.9533 39.0567C78.4339 39.0567 78.6582 39.0247 78.9786 38.9606L79.0106 41.5559C78.5621 41.7161 77.729 41.8442 76.7358 41.8442C75.6144 41.8442 74.6532 41.4597 74.0765 40.883C73.4357 40.2422 73.1153 39.1529 73.1153 37.6149V33.0973H71.6094V30.5661H73.1153V28.5156L76.5756 27.5864Z" fill="#303030"/>
<path d="M83.6885 37.2302C83.7846 38.64 86.5721 39.9857 88.4624 37.7749L90.9295 40.2099C89.8722 42.3887 81.1894 43.7984 80.3243 36.3651C80.0039 33.5777 82.535 30.5979 85.675 30.5339C89.3275 30.4698 91.5062 33.0971 91.5062 35.8205C91.5062 36.3972 91.4422 36.9419 91.3781 37.1661L83.6885 37.2302ZM87.8216 34.8593C87.8216 34.0262 87.4372 32.6165 85.8352 32.6165C84.3613 32.6165 83.7526 33.9621 83.6564 34.8593H87.8216Z" fill="#303030"/>
<path d="M165.372 37.2302C165.468 38.64 168.255 39.9857 170.146 37.7749L172.613 40.2099C171.555 42.3887 162.872 43.7984 162.007 36.3651C161.687 33.5777 164.218 30.5979 167.358 30.5339C171.011 30.4698 173.189 33.0971 173.189 35.8205C173.189 36.3972 173.125 36.9419 173.061 37.1661L165.372 37.2302ZM169.505 34.8593C169.505 34.0262 169.12 32.6165 167.518 32.6165C166.044 32.6165 165.436 33.9621 165.34 34.8593H169.505Z" fill="#303030"/>
<path d="M93.1724 25.5679H96.6647V41.6519H93.1724V25.5679Z" fill="#303030"/>
<path d="M99.5161 25.5679H103.008V41.6519H99.5161V25.5679Z" fill="#303030"/>
<path d="M109.481 27.4904C109.481 28.4516 108.776 29.2206 107.59 29.2206C106.469 29.2206 105.764 28.4516 105.764 27.4904C105.764 26.5292 106.501 25.7603 107.622 25.7603C108.776 25.7923 109.449 26.5292 109.481 27.4904ZM105.86 41.6521V30.5983H109.353V41.6521H105.86Z" fill="#303030"/>
<path d="M123.432 40.0499C123.432 42.1645 122.983 43.9267 121.701 45.0161C120.484 46.0414 118.433 46.2657 116.671 46.0414C115.197 45.8491 112.025 44.0869 111 43.5423L112.218 40.7868C112.922 41.2033 115.357 42.7413 116.703 42.7413C118.369 42.7413 119.939 42.8694 119.939 40.8189V40.114H119.907C119.234 41.0111 118.145 41.5558 116.863 41.5558C114.076 41.5558 112.089 39.345 112.089 36.1731C112.089 32.5846 114.428 30.3418 117.216 30.3418C118.754 30.3418 119.715 30.9826 120.292 31.9118H120.324L120.452 30.5661H123.496C123.464 31.303 123.399 32.2322 123.399 33.8662V40.0499H123.432ZM119.939 35.0837C119.939 34.8915 119.907 34.6672 119.875 34.4429C119.619 33.5458 118.946 32.937 117.985 32.937C116.703 32.937 115.678 34.0584 115.678 36.077C115.678 37.743 116.511 39.0246 117.953 39.0246C118.882 39.0246 119.587 38.4479 119.811 37.6469C119.907 37.3906 119.939 37.0061 119.939 36.7178V35.0837Z" fill="#303030"/>
<path d="M128.942 37.2306C129.038 38.6403 130.48 39.3452 132.114 39.3452C133.3 39.3452 134.293 39.185 135.222 38.8646L135.671 41.2035C134.517 41.6841 133.108 41.9084 131.602 41.9084C127.757 41.9084 125.578 39.7297 125.578 36.2694C125.578 33.4499 127.34 30.374 131.281 30.374C134.934 30.374 136.312 33.1615 136.312 35.8849C136.312 36.4616 136.247 37.0063 136.183 37.2306H128.942ZM133.075 34.8596C133.075 34.0266 132.691 32.6168 131.089 32.6168C129.615 32.6168 129.006 33.9625 128.91 34.8596H133.075Z" fill="#303030"/>
<path d="M138.426 34.1225C138.426 32.7448 138.394 31.5914 138.33 30.5981H141.374L141.534 32.136H141.598C142.047 31.3991 143.2 30.3418 145.091 30.3418C147.397 30.3418 149.128 31.8477 149.128 35.1158V41.6519H145.635V35.5323C145.635 34.1225 145.123 33.1293 143.873 33.1293C142.912 33.1293 142.335 33.7701 142.079 34.4109C141.983 34.6352 141.951 34.9556 141.951 35.276V41.6519H138.458V34.1225H138.426Z" fill="#303030"/>
<path d="M161.207 39.6656C160.438 40.3064 159.316 42.1006 157.042 42.1006C153.389 42.1006 150.858 39.7297 150.858 36.2694C150.858 33.0333 152.46 30.7905 156.657 30.7905C157.586 30.7905 159.733 31.2391 160.886 32.777L158.291 35.148C158.195 34.2188 155.151 32.3605 154.062 35.9169C153.485 37.8393 155.408 38.9287 156.657 38.9287C157.49 38.9287 158.099 38.352 158.836 37.583L161.207 39.6656Z" fill="#303030"/>
<path d="M108.808 7.81752C110.931 7.81752 112.652 6.09615 112.652 3.97273C112.652 1.8493 110.931 0.12793 108.808 0.12793C106.684 0.12793 104.963 1.8493 104.963 3.97273C104.963 6.09615 106.684 7.81752 108.808 7.81752Z" fill="url(#paint5_linear_222_2864)"/>
<defs>
<linearGradient id="paint0_linear_222_2864" x1="7.11386" y1="32.1179" x2="7.11386" y2="23.9746" gradientUnits="userSpaceOnUse">
<stop offset="4.74173e-07" stop-color="#5F9630"/>
<stop offset="1" stop-color="#A6B953"/>
</linearGradient>
<linearGradient id="paint1_linear_222_2864" x1="23.9311" y1="30.5842" x2="23.9311" y2="26.0199" gradientUnits="userSpaceOnUse">
<stop offset="4.74173e-07" stop-color="#5F9630"/>
<stop offset="1" stop-color="#A6B953"/>
</linearGradient>
<linearGradient id="paint2_linear_222_2864" x1="44.2388" y1="32.3373" x2="44.2388" y2="27.4774" gradientUnits="userSpaceOnUse">
<stop offset="4.74173e-07" stop-color="#5F9630"/>
<stop offset="1" stop-color="#A6B953"/>
</linearGradient>
<linearGradient id="paint3_linear_222_2864" x1="12.0008" y1="45.5571" x2="12.0008" y2="28.0786" gradientUnits="userSpaceOnUse">
<stop offset="4.74173e-07" stop-color="#5F9630"/>
<stop offset="1" stop-color="#A6B953"/>
</linearGradient>
<linearGradient id="paint4_linear_222_2864" x1="36.6437" y1="45.5438" x2="36.6437" y2="28.0761" gradientUnits="userSpaceOnUse">
<stop offset="4.74173e-07" stop-color="#5F9630"/>
<stop offset="1" stop-color="#A6B953"/>
</linearGradient>
<linearGradient id="paint5_linear_222_2864" x1="108.798" y1="7.81845" x2="108.798" y2="0.105854" gradientUnits="userSpaceOnUse">
<stop offset="1.6303e-06" stop-color="#EB8A00"/>
<stop offset="1" stop-color="#EBB327"/>
</linearGradient>
</defs>
</svg>
